STARTFONT 2.1
FONT -SGI-Fixed-Bold-R-Normal--15-140-75-75-C-90-ISO8859-5
SIZE 14 75 75
FONTBOUNDINGBOX 9 15 0 -3

STARTPROPERTIES 21
FONTNAME_REGISTRY ""
FOUNDRY "SGI"
FAMILY_NAME "Fixed"
WEIGHT_NAME "Medium"
SLANT "R"
SETWIDTH_NAME "Normal"
ADD_STYLE_NAME ""
PIXEL_SIZE 15
POINT_SIZE 140
RESOLUTION_X 75
RESOLUTION_Y 75
SPACING "C"
AVERAGE_WIDTH 90
CHARSET_REGISTRY "ISO8859"
CHARSET_ENCODING "5"
X_HEIGHT 8
WEIGHT 10
QUAD_WIDTH 9
DEFAULT_CHAR 0
FONT_DESCENT 3
FONT_ASCENT 12
ENDPROPERTIES

CHARS 190

STARTCHAR space
ENCODING 32
SWIDTH 714 0
DWIDTH 9 0
BBX 9 15 0 -3
BITMAP
0000
0000
0000
0000
0000
0000
0000
0000
0000
0000
0000
0000
0000
0000
0000
ENDCHAR

STARTCHAR !
ENCODING 33
SWIDTH 714 0
DWIDTH 9 0
BBX 9 15 0 -3
BITMAP
0000
0000
0600
0600
0600
0600
0600
0600
0600
0600
0000
0600
0000
0000
0000
ENDCHAR

STARTCHAR "
ENCODING 34
SWIDTH 714 0
DWIDTH 9 0
BBX 9 15 0 -3
BITMAP
0000
0000
0000
0D80
0D80
0000
0000
0000
0000
0000
0000
0000
0000
0000
0000
ENDCHAR

STARTCHAR #
ENCODING 35
SWIDTH 714 0
DWIDTH 9 0
BBX 9 15 0 -3
BITMAP
0000
0000
0000
1B00
1B00
3F80
1B00
1B00
3F80
1B00
1B00
0000
0000
0000
0000
ENDCHAR

STARTCHAR $
ENCODING 36
SWIDTH 714 0
DWIDTH 9 0
BBX 9 15 0 -3
BITMAP
0000
0000
0000
0600
1F80
3600
3600
1F80
0680
0680
1F80
0600
0000
0000
0000
ENDCHAR

STARTCHAR %
ENCODING 37
SWIDTH 714 0
DWIDTH 9 0
BBX 9 15 0 -3
BITMAP
0000
0000
1880
3D80
3D80
1B00
0600
0600
0D80
1B80
1B80
3180
0000
0000
0000
ENDCHAR

STARTCHAR &
ENCODING 38
SWIDTH 714 0
DWIDTH 9 0
BBX 9 15 0 -3
BITMAP
0000
0000
1E00
3300
3300
3300
1E00
3300
3380
3180
3380
1E80
0000
0000
0000
ENDCHAR

STARTCHAR '
ENCODING 39
SWIDTH 714 0
DWIDTH 9 0
BBX 9 15 0 -3
BITMAP
0000
0000
0780
0700
0C00
0000
0000
0000
0000
0000
0000
0000
0000
0000
0000
ENDCHAR

STARTCHAR (
ENCODING 40
SWIDTH 714 0
DWIDTH 9 0
BBX 9 15 0 -3
BITMAP
0000
0000
0300
0600
0600
0C00
0C00
0C00
0C00
0600
0600
0300
0000
0000
0000
ENDCHAR

STARTCHAR )
ENCODING 41
SWIDTH 714 0
DWIDTH 9 0
BBX 9 15 0 -3
BITMAP
0000
0000
0C00
0600
0600
0300
0300
0300
0300
0600
0600
0C00
0000
0000
0000
ENDCHAR

STARTCHAR *
ENCODING 42
SWIDTH 714 0
DWIDTH 9 0
BBX 9 15 0 -3
BITMAP
0000
0000
0000
0000
0000
1980
0F00
3F80
0F00
1980
0000
0000
0000
0000
0000
ENDCHAR

STARTCHAR +
ENCODING 43
SWIDTH 714 0
DWIDTH 9 0
BBX 9 15 0 -3
BITMAP
0000
0000
0000
0000
0600
0600
0600
3F80
0600
0600
0600
0000
0000
0000
0000
ENDCHAR

STARTCHAR ,
ENCODING 44
SWIDTH 714 0
DWIDTH 9 0
BBX 9 15 0 -3
BITMAP
0000
0000
0000
0000
0000
0000
0000
0000
0000
0000
0F00
0E00
1800
0000
0000
ENDCHAR

STARTCHAR -
ENCODING 45
SWIDTH 714 0
DWIDTH 9 0
BBX 9 15 0 -3
BITMAP
0000
0000
0000
0000
0000
0000
0000
3F80
0000
0000
0000
0000
0000
0000
0000
ENDCHAR

STARTCHAR .
ENCODING 46
SWIDTH 714 0
DWIDTH 9 0
BBX 9 15 0 -3
BITMAP
0000
0000
0000
0000
0000
0000
0000
0000
0000
0000
0600
0F00
0600
0000
0000
ENDCHAR

STARTCHAR /
ENCODING 47
SWIDTH 714 0
DWIDTH 9 0
BBX 9 15 0 -3
BITMAP
0000
0000
0080
0180
0180
0300
0600
0600
0C00
1800
1800
3000
0000
0000
0000
ENDCHAR

STARTCHAR 0
ENCODING 48
SWIDTH 714 0
DWIDTH 9 0
BBX 9 15 0 -3
BITMAP
0000
0000
0F00
1980
3080
3080
3080
3080
3080
3080
1980
0F00
0000
0000
0000
ENDCHAR

STARTCHAR 1
ENCODING 49
SWIDTH 714 0
DWIDTH 9 0
BBX 9 15 0 -3
BITMAP
0000
0000
0600
0E00
1E00
0600
0600
0600
0600
0600
0600
1F80
0000
0000
0000
ENDCHAR

STARTCHAR 2
ENCODING 50
SWIDTH 714 0
DWIDTH 9 0
BBX 9 15 0 -3
BITMAP
0000
0000
1F80
3080
3080
0080
0180
0300
0E00
1800
3000
3F80
0000
0000
0000
ENDCHAR

STARTCHAR 3
ENCODING 51
SWIDTH 714 0
DWIDTH 9 0
BBX 9 15 0 -3
BITMAP
0000
0000
3F80
0080
0180
0300
0780
0080
0080
0080
3080
1F80
0000
0000
0000
ENDCHAR

STARTCHAR 4
ENCODING 52
SWIDTH 714 0
DWIDTH 9 0
BBX 9 15 0 -3
BITMAP
0000
0000
0180
0380
0780
0D80
1980
3180
3F80
0180
0180
0180
0000
0000
0000
ENDCHAR

STARTCHAR 5
ENCODING 53
SWIDTH 714 0
DWIDTH 9 0
BBX 9 15 0 -3
BITMAP
0000
0000
3F80
3000
3000
3F80
3880
0080
0080
0080
3080
1F80
0000
0000
0000
ENDCHAR

STARTCHAR 6
ENCODING 54
SWIDTH 714 0
DWIDTH 9 0
BBX 9 15 0 -3
BITMAP
0000
0000
0F80
1800
3000
3000
3F80
3880
3080
3080
3080
1F80
0000
0000
0000
ENDCHAR

STARTCHAR 7
ENCODING 55
SWIDTH 714 0
DWIDTH 9 0
BBX 9 15 0 -3
BITMAP
0000
0000
3F80
0080
0080
0180
0300
0600
0C00
0C00
1800
1800
0000
0000
0000
ENDCHAR

STARTCHAR 8
ENCODING 56
SWIDTH 714 0
DWIDTH 9 0
BBX 9 15 0 -3
BITMAP
0000
0000
1F80
3080
3080
3080
1F80
3080
3080
3080
3080
1F80
0000
0000
0000
ENDCHAR

STARTCHAR 9
ENCODING 57
SWIDTH 714 0
DWIDTH 9 0
BBX 9 15 0 -3
BITMAP
0000
0000
1F80
3080
3080
3080
3180
1F80
0080
0080
0180
1F00
0000
0000
0000
ENDCHAR

STARTCHAR :
ENCODING 58
SWIDTH 714 0
DWIDTH 9 0
BBX 9 15 0 -3
BITMAP
0000
0000
0000
0000
0000
0600
0F00
0600
0000
0000
0600
0F00
0600
0000
0000
ENDCHAR

STARTCHAR ;
ENCODING 59
SWIDTH 714 0
DWIDTH 9 0
BBX 9 15 0 -3
BITMAP
0000
0000
0000
0000
0000
0600
0F00
0600
0000
0000
0F00
0E00
1800
0000
0000
ENDCHAR

STARTCHAR <
ENCODING 60
SWIDTH 714 0
DWIDTH 9 0
BBX 9 15 0 -3
BITMAP
0000
0000
0000
0300
0600
0C00
1800
1800
0C00
0600
0300
0180
0000
0000
0000
ENDCHAR

STARTCHAR =
ENCODING 61
SWIDTH 714 0
DWIDTH 9 0
BBX 9 15 0 -3
BITMAP
0000
0000
0000
0000
0000
0000
3F80
0000
0000
3F80
0000
0000
0000
0000
0000
ENDCHAR

STARTCHAR >
ENCODING 62
SWIDTH 714 0
DWIDTH 9 0
BBX 9 15 0 -3
BITMAP
0000
0000
1800
0C00
0600
0300
0180
0180
0300
0600
0C00
1800
0000
0000
0000
ENDCHAR

STARTCHAR ?
ENCODING 63
SWIDTH 714 0
DWIDTH 9 0
BBX 9 15 0 -3
BITMAP
0000
0000
1F80
3080
3080
0080
0180
0300
0600
0600
0000
0600
0000
0000
0000
ENDCHAR

STARTCHAR @
ENCODING 64
SWIDTH 714 0
DWIDTH 9 0
BBX 9 15 0 -3
BITMAP
0000
0000
1F80
3080
3080
3780
3C80
3D80
3780
3000
3000
1F80
0000
0000
0000
ENDCHAR

STARTCHAR A
ENCODING 65
SWIDTH 714 0
DWIDTH 9 0
BBX 9 15 0 -3
BITMAP
0000
0000
0600
0F00
1980
3080
3080
3080
3F80
3080
3080
3080
0000
0000
0000
ENDCHAR

STARTCHAR B
ENCODING 66
SWIDTH 714 0
DWIDTH 9 0
BBX 9 15 0 -3
BITMAP
0000
0000
3F80
1880
1880
1880
1F80
1880
1880
1880
1880
3F80
0000
0000
0000
ENDCHAR

STARTCHAR C
ENCODING 67
SWIDTH 714 0
DWIDTH 9 0
BBX 9 15 0 -3
BITMAP
0000
0000
1F80
3080
3000
3000
3000
3000
3000
3000
3080
1F80
0000
0000
0000
ENDCHAR

STARTCHAR D
ENCODING 68
SWIDTH 714 0
DWIDTH 9 0
BBX 9 15 0 -3
BITMAP
0000
0000
3F80
1880
1880
1880
1880
1880
1880
1880
1880
3F80
0000
0000
0000
ENDCHAR

STARTCHAR E
ENCODING 69
SWIDTH 714 0
DWIDTH 9 0
BBX 9 15 0 -3
BITMAP
0000
0000
3F80
1800
1800
1800
1F00
1800
1800
1800
1800
3F80
0000
0000
0000
ENDCHAR

STARTCHAR F
ENCODING 70
SWIDTH 714 0
DWIDTH 9 0
BBX 9 15 0 -3
BITMAP
0000
0000
3F80
1800
1800
1800
1F00
1800
1800
1800
1800
1800
0000
0000
0000
ENDCHAR

STARTCHAR G
ENCODING 71
SWIDTH 714 0
DWIDTH 9 0
BBX 9 15 0 -3
BITMAP
0000
0000
1F80
3080
3000
3000
3000
3380
3080
3080
3080
1F80
0000
0000
0000
ENDCHAR

STARTCHAR H
ENCODING 72
SWIDTH 714 0
DWIDTH 9 0
BBX 9 15 0 -3
BITMAP
0000
0000
3080
3080
3080
3080
3F80
3080
3080
3080
3080
3080
0000
0000
0000
ENDCHAR

STARTCHAR I
ENCODING 73
SWIDTH 714 0
DWIDTH 9 0
BBX 9 15 0 -3
BITMAP
0000
0000
1F80
0600
0600
0600
0600
0600
0600
0600
0600
1F80
0000
0000
0000
ENDCHAR

STARTCHAR J
ENCODING 74
SWIDTH 714 0
DWIDTH 9 0
BBX 9 15 0 -3
BITMAP
0000
0000
0780
0180
0180
0180
0180
0180
0180
0180
3180
1F00
0000
0000
0000
ENDCHAR

STARTCHAR K
ENCODING 75
SWIDTH 714 0
DWIDTH 9 0
BBX 9 15 0 -3
BITMAP
0000
0000
3080
3180
3300
3600
3C00
3C00
3600
3300
3180
3080
0000
0000
0000
ENDCHAR

STARTCHAR L
ENCODING 76
SWIDTH 714 0
DWIDTH 9 0
BBX 9 15 0 -3
BITMAP
0000
0000
3000
3000
3000
3000
3000
3000
3000
3000
3000
3F80
0000
0000
0000
ENDCHAR

STARTCHAR M
ENCODING 77
SWIDTH 714 0
DWIDTH 9 0
BBX 9 15 0 -3
BITMAP
0000
0000
3080
3080
3980
3F80
3F80
3680
3680
3080
3080
3080
0000
0000
0000
ENDCHAR

STARTCHAR N
ENCODING 78
SWIDTH 714 0
DWIDTH 9 0
BBX 9 15 0 -3
BITMAP
0000
0000
3080
3080
3880
3C80
3680
3380
3180
3080
3080
3080
0000
0000
0000
ENDCHAR

STARTCHAR O
ENCODING 79
SWIDTH 714 0
DWIDTH 9 0
BBX 9 15 0 -3
BITMAP
0000
0000
1F80
3080
3080
3080
3080
3080
3080
3080
3080
1F80
0000
0000
0000
ENDCHAR

STARTCHAR P
ENCODING 80
SWIDTH 714 0
DWIDTH 9 0
BBX 9 15 0 -3
BITMAP
0000
0000
3F80
3080
3080
3080
3F80
3000
3000
3000
3000
3000
0000
0000
0000
ENDCHAR

STARTCHAR Q
ENCODING 81
SWIDTH 714 0
DWIDTH 9 0
BBX 9 15 0 -3
BITMAP
0000
0000
1F80
3080
3080
3080
3080
3080
3080
3680
3380
1F80
0080
0000
0000
ENDCHAR

STARTCHAR R
ENCODING 82
SWIDTH 714 0
DWIDTH 9 0
BBX 9 15 0 -3
BITMAP
0000
0000
3F80
3080
3080
3080
3F80
3600
3300
3180
3080
3080
0000
0000
0000
ENDCHAR

STARTCHAR S
ENCODING 83
SWIDTH 714 0
DWIDTH 9 0
BBX 9 15 0 -3
BITMAP
0000
0000
1F80
3080
3000
3000
1F80
0080
0080
0080
3080
1F80
0000
0000
0000
ENDCHAR

STARTCHAR T
ENCODING 84
SWIDTH 714 0
DWIDTH 9 0
BBX 9 15 0 -3
BITMAP
0000
0000
3F80
0600
0600
0600
0600
0600
0600
0600
0600
0600
0000
0000
0000
ENDCHAR

STARTCHAR U
ENCODING 85
SWIDTH 714 0
DWIDTH 9 0
BBX 9 15 0 -3
BITMAP
0000
0000
3080
3080
3080
3080
3080
3080
3080
3080
3080
1F80
0000
0000
0000
ENDCHAR

STARTCHAR V
ENCODING 86
SWIDTH 714 0
DWIDTH 9 0
BBX 9 15 0 -3
BITMAP
0000
0000
3080
3080
3080
1980
1980
1980
0F00
0F00
0F00
0600
0000
0000
0000
ENDCHAR

STARTCHAR W
ENCODING 87
SWIDTH 714 0
DWIDTH 9 0
BBX 9 15 0 -3
BITMAP
0000
0000
3080
3080
3080
3080
3680
3680
3680
3680
3F80
1980
0000
0000
0000
ENDCHAR

STARTCHAR X
ENCODING 88
SWIDTH 714 0
DWIDTH 9 0
BBX 9 15 0 -3
BITMAP
0000
0000
3080
3080
1980
0F00
0600
0600
0F00
1980
3080
3080
0000
0000
0000
ENDCHAR

STARTCHAR Y
ENCODING 89
SWIDTH 714 0
DWIDTH 9 0
BBX 9 15 0 -3
BITMAP
0000
0000
3080
3080
1980
0F00
0600
0600
0600
0600
0600
0600
0000
0000
0000
ENDCHAR

STARTCHAR Z
ENCODING 90
SWIDTH 714 0
DWIDTH 9 0
BBX 9 15 0 -3
BITMAP
0000
0000
3F80
0080
0180
0300
0600
0C00
1800
3000
3000
3F80
0000
0000
0000
ENDCHAR

STARTCHAR [
ENCODING 91
SWIDTH 714 0
DWIDTH 9 0
BBX 9 15 0 -3
BITMAP
0000
0000
0F80
0C00
0C00
0C00
0C00
0C00
0C00
0C00
0C00
0F80
0000
0000
0000
ENDCHAR

STARTCHAR \
ENCODING 92
SWIDTH 714 0
DWIDTH 9 0
BBX 9 15 0 -3
BITMAP
0000
0000
3000
1800
1800
0C00
0600
0600
0300
0180
0180
0080
0000
0000
0000
ENDCHAR

STARTCHAR ]
ENCODING 93
SWIDTH 714 0
DWIDTH 9 0
BBX 9 15 0 -3
BITMAP
0000
0000
1F00
0300
0300
0300
0300
0300
0300
0300
0300
1F00
0000
0000
0000
ENDCHAR

STARTCHAR ^
ENCODING 94
SWIDTH 714 0
DWIDTH 9 0
BBX 9 15 0 -3
BITMAP
0000
0000
0600
0F00
1980
3080
0000
0000
0000
0000
0000
0000
0000
0000
0000
ENDCHAR

STARTCHAR _
ENCODING 95
SWIDTH 714 0
DWIDTH 9 0
BBX 9 15 0 -3
BITMAP
0000
0000
0000
0000
0000
0000
0000
0000
0000
0000
0000
0000
7F80
0000
0000
ENDCHAR

STARTCHAR `
ENCODING 96
SWIDTH 714 0
DWIDTH 9 0
BBX 9 15 0 -3
BITMAP
0000
0000
1E00
0E00
0300
0000
0000
0000
0000
0000
0000
0000
0000
0000
0000
ENDCHAR

STARTCHAR a
ENCODING 97
SWIDTH 714 0
DWIDTH 9 0
BBX 9 15 0 -3
BITMAP
0000
0000
0000
0000
0000
1F80
0080
0080
1F80
3080
3180
1F80
0000
0000
0000
ENDCHAR

STARTCHAR b
ENCODING 98
SWIDTH 714 0
DWIDTH 9 0
BBX 9 15 0 -3
BITMAP
0000
0000
3000
3000
3000
3F80
3880
3080
3080
3080
3880
3F80
0000
0000
0000
ENDCHAR

STARTCHAR c
ENCODING 99
SWIDTH 714 0
DWIDTH 9 0
BBX 9 15 0 -3
BITMAP
0000
0000
0000
0000
0000
1F80
3080
3000
3000
3000
3080
1F80
0000
0000
0000
ENDCHAR

STARTCHAR d
ENCODING 100
SWIDTH 714 0
DWIDTH 9 0
BBX 9 15 0 -3
BITMAP
0000
0000
0080
0080
0080
1F80
3180
3080
3080
3080
3180
1F80
0000
0000
0000
ENDCHAR

STARTCHAR e
ENCODING 101
SWIDTH 714 0
DWIDTH 9 0
BBX 9 15 0 -3
BITMAP
0000
0000
0000
0000
0000
1F80
3080
3080
3F80
3000
3000
1F80
0000
0000
0000
ENDCHAR

STARTCHAR f
ENCODING 102
SWIDTH 714 0
DWIDTH 9 0
BBX 9 15 0 -3
BITMAP
0000
0000
0780
0C80
0C80
0C00
0C00
3F00
0C00
0C00
0C00
0C00
0000
0000
0000
ENDCHAR

STARTCHAR g
ENCODING 103
SWIDTH 714 0
DWIDTH 9 0
BBX 9 15 0 -3
BITMAP
0000
0000
0000
0000
0000
1F80
3180
3180
3180
1F00
3000
1F80
3080
3080
1F80
ENDCHAR

STARTCHAR h
ENCODING 104
SWIDTH 714 0
DWIDTH 9 0
BBX 9 15 0 -3
BITMAP
0000
0000
3000
3000
3000
3F80
3880
3080
3080
3080
3080
3080
0000
0000
0000
ENDCHAR

STARTCHAR i
ENCODING 105
SWIDTH 714 0
DWIDTH 9 0
BBX 9 15 0 -3
BITMAP
0000
0000
0000
0600
0000
0E00
0600
0600
0600
0600
0600
1F80
0000
0000
0000
ENDCHAR

STARTCHAR j
ENCODING 106
SWIDTH 714 0
DWIDTH 9 0
BBX 9 15 0 -3
BITMAP
0000
0000
0000
0180
0000
0780
0180
0180
0180
0180
0180
3180
3180
3180
1F00
ENDCHAR

STARTCHAR k
ENCODING 107
SWIDTH 714 0
DWIDTH 9 0
BBX 9 15 0 -3
BITMAP
0000
0000
3000
3000
3000
3080
3380
3E00
3800
3E00
3380
3080
0000
0000
0000
ENDCHAR

STARTCHAR l
ENCODING 108
SWIDTH 714 0
DWIDTH 9 0
BBX 9 15 0 -3
BITMAP
0000
0000
0E00
0600
0600
0600
0600
0600
0600
0600
0600
1F80
0000
0000
0000
ENDCHAR

STARTCHAR m
ENCODING 109
SWIDTH 714 0
DWIDTH 9 0
BBX 9 15 0 -3
BITMAP
0000
0000
0000
0000
0000
3F80
3680
3680
3680
3680
3680
3080
0000
0000
0000
ENDCHAR

STARTCHAR n
ENCODING 110
SWIDTH 714 0
DWIDTH 9 0
BBX 9 15 0 -3
BITMAP
0000
0000
0000
0000
0000
3F80
3880
3080
3080
3080
3080
3080
0000
0000
0000
ENDCHAR

STARTCHAR o
ENCODING 111
SWIDTH 714 0
DWIDTH 9 0
BBX 9 15 0 -3
BITMAP
0000
0000
0000
0000
0000
1F80
3080
3080
3080
3080
3080
1F80
0000
0000
0000
ENDCHAR

STARTCHAR p
ENCODING 112
SWIDTH 714 0
DWIDTH 9 0
BBX 9 15 0 -3
BITMAP
0000
0000
0000
0000
0000
3F80
3880
3080
3080
3080
3880
3F80
3000
3000
3000
ENDCHAR

STARTCHAR q
ENCODING 113
SWIDTH 714 0
DWIDTH 9 0
BBX 9 15 0 -3
BITMAP
0000
0000
0000
0000
0000
1F80
3180
3080
3080
3080
3180
1F80
0080
0080
0080
ENDCHAR

STARTCHAR r
ENCODING 114
SWIDTH 714 0
DWIDTH 9 0
BBX 9 15 0 -3
BITMAP
0000
0000
0000
0000
0000
3780
1C80
1880
1800
1800
1800
1800
0000
0000
0000
ENDCHAR

STARTCHAR s
ENCODING 115
SWIDTH 714 0
DWIDTH 9 0
BBX 9 15 0 -3
BITMAP
0000
0000
0000
0000
0000
1F80
3080
3000
1F80
0080
3080
1F80
0000
0000
0000
ENDCHAR

STARTCHAR t
ENCODING 116
SWIDTH 714 0
DWIDTH 9 0
BBX 9 15 0 -3
BITMAP
0000
0000
0000
0C00
0C00
3F80
0C00
0C00
0C00
0C00
0C80
0780
0000
0000
0000
ENDCHAR

STARTCHAR u
ENCODING 117
SWIDTH 714 0
DWIDTH 9 0
BBX 9 15 0 -3
BITMAP
0000
0000
0000
0000
0000
3180
3180
3180
3180
3180
3180
1F80
0000
0000
0000
ENDCHAR

STARTCHAR v
ENCODING 118
SWIDTH 714 0
DWIDTH 9 0
BBX 9 15 0 -3
BITMAP
0000
0000
0000
0000
0000
3080
3080
1980
1980
0F00
0F00
0600
0000
0000
0000
ENDCHAR

STARTCHAR w
ENCODING 119
SWIDTH 714 0
DWIDTH 9 0
BBX 9 15 0 -3
BITMAP
0000
0000
0000
0000
0000
3080
3080
3680
3680
3680
3F80
1980
0000
0000
0000
ENDCHAR

STARTCHAR x
ENCODING 120
SWIDTH 714 0
DWIDTH 9 0
BBX 9 15 0 -3
BITMAP
0000
0000
0000
0000
0000
3080
1980
0F00
0600
0F00
1980
3080
0000
0000
0000
ENDCHAR

STARTCHAR y
ENCODING 121
SWIDTH 714 0
DWIDTH 9 0
BBX 9 15 0 -3
BITMAP
0000
0000
0000
0000
0000
3180
3180
3180
3180
3180
3380
1F80
0180
3180
1F00
ENDCHAR

STARTCHAR z
ENCODING 122
SWIDTH 714 0
DWIDTH 9 0
BBX 9 15 0 -3
BITMAP
0000
0000
0000
0000
0000
3F80
0180
0300
0600
0C00
1800
3F80
0000
0000
0000
ENDCHAR

STARTCHAR {
ENCODING 123
SWIDTH 714 0
DWIDTH 9 0
BBX 9 15 0 -3
BITMAP
0000
0000
0380
0600
0600
0300
0E00
0E00
0300
0600
0600
0380
0000
0000
0000
ENDCHAR

STARTCHAR |
ENCODING 124
SWIDTH 714 0
DWIDTH 9 0
BBX 9 15 0 -3
BITMAP
0000
0000
0600
0600
0600
0600
0600
0600
0600
0600
0600
0600
0000
0000
0000
ENDCHAR

STARTCHAR }
ENCODING 125
SWIDTH 714 0
DWIDTH 9 0
BBX 9 15 0 -3
BITMAP
0000
0000
3C00
0600
0600
0C00
0700
0700
0C00
0600
0600
3C00
0000
0000
0000
ENDCHAR

STARTCHAR ~
ENCODING 126
SWIDTH 714 0
DWIDTH 9 0
BBX 9 15 0 -3
BITMAP
0000
0000
1C80
3680
3380
0000
0000
0000
0000
0000
0000
0000
0000
0000
0000
ENDCHAR

STARTCHAR cyrillic_DJE
ENCODING 161
SWIDTH 714 0
DWIDTH 9 0
BBX 9 15 0 -3
BITMAP
1980
1980
0000
3F80
1800
1800
1F00
1800
1800
1800
1800
3F80
0000
0000
0000
ENDCHAR

STARTCHAR cyrillic_GJE
ENCODING 162
SWIDTH 714 0
DWIDTH 9 0
BBX 9 15 0 -3
BITMAP
0000
0000
7F80
0C00
0C00
0C00
0F80
0C80
0C80
0C80
0F80
0D80
0000
0000
0000
ENDCHAR

STARTCHAR cyrillic_IE
ENCODING 163
SWIDTH 714 0
DWIDTH 9 0
BBX 9 15 0 -3
BITMAP
0700
0600
0C00
3F80
1880
1800
1800
1800
1800
1800
1800
1800
0000
0000
0000
ENDCHAR

STARTCHAR cyrillic_DZE
ENCODING 164
SWIDTH 714 0
DWIDTH 9 0
BBX 9 15 0 -3
BITMAP
0000
0000
0F00
1980
3080
3000
3E00
3000
3000
3080
1980
0F00
0000
0000
0000
ENDCHAR

STARTCHAR cyrillic_I
ENCODING 165
SWIDTH 714 0
DWIDTH 9 0
BBX 9 15 0 -3
BITMAP
0000
0000
0F00
1980
3080
1800
0F00
0180
0080
3080
1980
0F00
0000
0000
0000
ENDCHAR

STARTCHAR cyrillic_YI
ENCODING 166
SWIDTH 714 0
DWIDTH 9 0
BBX 9 15 0 -3
BITMAP
0000
0000
0F00
0600
0600
0600
0600
0600
0600
0600
0600
0F00
0000
0000
0000
ENDCHAR

STARTCHAR cyrillic_JE
ENCODING 167
SWIDTH 714 0
DWIDTH 9 0
BBX 9 15 0 -3
BITMAP
1980
1980
0000
0F00
0600
0600
0600
0600
0600
0600
0600
0F00
0000
0000
0000
ENDCHAR

STARTCHAR cyrillic_LJE
ENCODING 168
SWIDTH 714 0
DWIDTH 9 0
BBX 9 15 0 -3
BITMAP
0000
0000
0380
0180
0180
0180
0180
0180
0180
3180
1B00
0E00
0000
0000
0000
ENDCHAR

STARTCHAR cyrillic_NJE
ENCODING 169
SWIDTH 714 0
DWIDTH 9 0
BBX 9 15 0 -3
BITMAP
0000
0000
3E00
3600
3600
3600
3780
3680
6680
6680
6680
6780
0000
0000
0000
ENDCHAR

STARTCHAR cyrillic_TSHE
ENCODING 170
SWIDTH 714 0
DWIDTH 9 0
BBX 9 15 0 -3
BITMAP
0000
0000
6600
6600
6600
6600
7F80
6680
6680
6680
6680
6780
0000
0000
0000
ENDCHAR

STARTCHAR cyrillic_KJE
ENCODING 171
SWIDTH 714 0
DWIDTH 9 0
BBX 9 15 0 -3
BITMAP
0000
0000
7F80
0C00
0C00
0C00
0F80
0C80
0C80
0C80
0C80
0C80
0000
0000
0000
ENDCHAR

STARTCHAR soft_hyphen
ENCODING 172
SWIDTH 714 0
DWIDTH 9 0
BBX 9 15 0 -3
BITMAP
0700
0600
3C80
3180
3300
3600
3C00
3C00
3600
3300
3180
3080
0000
0000
0000
ENDCHAR

STARTCHAR noname
ENCODING 173
SWIDTH 600 0
DWIDTH 9 0
BBX 9 15 0 -3
BITMAP
0000
0000
0000
0000
0000
0000
FF80
FF80
0000
0000
0000
0000
0000
0000
0000
ENDCHAR

STARTCHAR cyrillic_short_U
ENCODING 174
SWIDTH 714 0
DWIDTH 9 0
BBX 9 15 0 -3
BITMAP
1980
0F00
3080
3080
3080
1980
1980
0F00
0F00
0600
3600
1C00
0000
0000
0000
ENDCHAR

STARTCHAR cyrillic_DZHE
ENCODING 175
SWIDTH 714 0
DWIDTH 9 0
BBX 9 15 0 -3
BITMAP
0000
0000
3080
3080
3080
3080
3080
3080
3080
3080
3080
3F80
0F00
0600
0600
ENDCHAR

STARTCHAR cyrillic_A
ENCODING 176
SWIDTH 714 0
DWIDTH 9 0
BBX 9 15 0 -3
BITMAP
0000
0000
0600
0F00
1980
3080
3080
3080
3F80
3080
3080
3080
0000
0000
0000
ENDCHAR

STARTCHAR cyrillic_BE
ENCODING 177
SWIDTH 714 0
DWIDTH 9 0
BBX 9 15 0 -3
BITMAP
0000
0000
3F80
1800
1800
1800
1F80
1880
1880
1880
1880
3F80
0000
0000
0000
ENDCHAR

STARTCHAR cyrillic_VE
ENCODING 178
SWIDTH 714 0
DWIDTH 9 0
BBX 9 15 0 -3
BITMAP
0000
0000
3F80
1880
1880
1880
1F80
1880
1880
1880
1880
3F80
0000
0000
0000
ENDCHAR

STARTCHAR cyrillic_GHE
ENCODING 179
SWIDTH 714 0
DWIDTH 9 0
BBX 9 15 0 -3
BITMAP
0000
0000
3F80
1880
1800
1800
1800
1800
1800
1800
1800
1800
0000
0000
0000
ENDCHAR

STARTCHAR cyrillic_DE
ENCODING 180
SWIDTH 714 0
DWIDTH 9 0
BBX 9 15 0 -3
BITMAP
0000
0000
1F80
0D80
0D80
0D80
1980
1980
1980
3180
3180
7F80
6080
0000
0000
ENDCHAR

STARTCHAR cyrillic_IE
ENCODING 181
SWIDTH 714 0
DWIDTH 9 0
BBX 9 15 0 -3
BITMAP
0000
0000
3F80
1800
1800
1800
1F00
1800
1800
1800
1800
3F80
0000
0000
0000
ENDCHAR

STARTCHAR cyrillic_ZHE
ENCODING 182
SWIDTH 714 0
DWIDTH 9 0
BBX 9 15 0 -3
BITMAP
0000
0000
3680
3680
3680
1F80
0F00
1F80
3680
3680
3680
3680
0000
0000
0000
ENDCHAR

STARTCHAR cyrillic_ZE
ENCODING 183
SWIDTH 714 0
DWIDTH 9 0
BBX 9 15 0 -3
BITMAP
0000
0000
1F80
3080
0080
0080
0780
0080
0080
0080
3080
1F80
0000
0000
0000
ENDCHAR

STARTCHAR cyrillic_I
ENCODING 184
SWIDTH 714 0
DWIDTH 9 0
BBX 9 15 0 -3
BITMAP
0000
0000
3080
3080
3180
3380
3680
3C80
3880
3080
3080
3080
0000
0000
0000
ENDCHAR

STARTCHAR cyrillic_short_I
ENCODING 185
SWIDTH 714 0
DWIDTH 9 0
BBX 9 15 0 -3
BITMAP
1980
0F00
3080
3080
3180
3380
3680
3C80
3880
3080
3080
3080
0000
0000
0000
ENDCHAR

STARTCHAR cyrillic_KA
ENCODING 186
SWIDTH 714 0
DWIDTH 9 0
BBX 9 15 0 -3
BITMAP
0000
0000
3080
3180
3300
3300
3E00
3300
3180
3180
3180
3080
0000
0000
0000
ENDCHAR

STARTCHAR cyrillic_EL
ENCODING 187
SWIDTH 714 0
DWIDTH 9 0
BBX 9 15 0 -3
BITMAP
0000
0000
0F80
0C80
0C80
0C80
0C80
0C80
1880
1880
1880
3080
0000
0000
0000
ENDCHAR

STARTCHAR cyrillic_EM
ENCODING 188
SWIDTH 714 0
DWIDTH 9 0
BBX 9 15 0 -3
BITMAP
0000
0000
3080
3080
3980
3F80
3F80
3680
3680
3080
3080
3080
0000
0000
0000
ENDCHAR

STARTCHAR cyrillic_EN
ENCODING 189
SWIDTH 714 0
DWIDTH 9 0
BBX 9 15 0 -3
BITMAP
0000
0000
3080
3080
3080
3080
3F80
3080
3080
3080
3080
3080
0000
0000
0000
ENDCHAR

STARTCHAR cyrillic_O
ENCODING 190
SWIDTH 714 0
DWIDTH 9 0
BBX 9 15 0 -3
BITMAP
0000
0000
1F80
3080
3080
3080
3080
3080
3080
3080
3080
1F80
0000
0000
0000
ENDCHAR

STARTCHAR cyrillic_PE
ENCODING 191
SWIDTH 714 0
DWIDTH 9 0
BBX 9 15 0 -3
BITMAP
0000
0000
3F80
1980
1980
1980
1980
1980
1980
1980
1980
1980
0000
0000
0000
ENDCHAR

STARTCHAR cyrillic_ER
ENCODING 192
SWIDTH 714 0
DWIDTH 9 0
BBX 9 15 0 -3
BITMAP
0000
0000
3F80
3080
3080
3080
3F80
3000
3000
3000
3000
3000
0000
0000
0000
ENDCHAR

STARTCHAR cyrillic_ES
ENCODING 193
SWIDTH 714 0
DWIDTH 9 0
BBX 9 15 0 -3
BITMAP
0000
0000
0F80
1880
3000
3000
3000
3000
3000
3000
1880
0F80
0000
0000
0000
ENDCHAR

STARTCHAR cyrillic_TE
ENCODING 194
SWIDTH 714 0
DWIDTH 9 0
BBX 9 15 0 -3
BITMAP
0000
0000
3F80
0600
0600
0600
0600
0600
0600
0600
0600
0600
0000
0000
0000
ENDCHAR

STARTCHAR cyrillic_U
ENCODING 195
SWIDTH 714 0
DWIDTH 9 0
BBX 9 15 0 -3
BITMAP
0000
0000
3080
3080
3080
1980
1980
0F00
0F00
0600
3600
1C00
0000
0000
0000
ENDCHAR

STARTCHAR cyrillic_EF
ENCODING 196
SWIDTH 714 0
DWIDTH 9 0
BBX 9 15 0 -3
BITMAP
0000
0F00
0600
1F80
3680
3680
3680
3680
3680
1F80
0600
0F00
0000
0000
0000
ENDCHAR

STARTCHAR cyrillic_HA
ENCODING 197
SWIDTH 714 0
DWIDTH 9 0
BBX 9 15 0 -3
BITMAP
0000
0000
3080
3080
1980
0F00
0600
0600
0F00
1980
3080
3080
0000
0000
0000
ENDCHAR

STARTCHAR cyrillic_TSE
ENCODING 198
SWIDTH 714 0
DWIDTH 9 0
BBX 9 15 0 -3
BITMAP
0000
0000
1980
1980
1980
1980
1980
1980
1980
1980
1980
3F80
0080
0080
0080
ENDCHAR

STARTCHAR cyrillic_CHE
ENCODING 199
SWIDTH 714 0
DWIDTH 9 0
BBX 9 15 0 -3
BITMAP
0000
0000
3080
3080
3080
3080
1F80
0080
0080
0080
0080
0080
0000
0000
0000
ENDCHAR

STARTCHAR cyrillic_SHA
ENCODING 200
SWIDTH 714 0
DWIDTH 9 0
BBX 9 15 0 -3
BITMAP
0000
0000
3680
3680
3680
3680
3680
3680
3680
3680
3680
3F80
0000
0000
0000
ENDCHAR

STARTCHAR cyrillic_SHCHA
ENCODING 201
SWIDTH 714 0
DWIDTH 9 0
BBX 9 15 0 -3
BITMAP
0000
0000
3680
3680
3680
3680
3680
3680
3680
3680
3680
3F80
0080
0080
0080
ENDCHAR

STARTCHAR cyrillic_HARD
ENCODING 202
SWIDTH 714 0
DWIDTH 9 0
BBX 9 15 0 -3
BITMAP
0000
0000
7800
7800
1800
1800
1F80
1880
1880
1880
1880
3F80
0000
0000
0000
ENDCHAR

STARTCHAR cyrillic_YERU
ENCODING 203
SWIDTH 714 0
DWIDTH 9 0
BBX 9 15 0 -3
BITMAP
0000
0000
7080
3080
3080
3080
3C80
3680
3680
3680
3680
7C80
0000
0000
0000
ENDCHAR

STARTCHAR cyrillic_SOFT
ENCODING 204
SWIDTH 714 0
DWIDTH 9 0
BBX 9 15 0 -3
BITMAP
0000
0000
3800
1800
1800
1800
1F80
1880
1880
1880
1880
3F80
0000
0000
0000
ENDCHAR

STARTCHAR cyrillic_E
ENCODING 205
SWIDTH 714 0
DWIDTH 9 0
BBX 9 15 0 -3
BITMAP
0000
0000
0F00
1980
3080
0080
0780
0080
0080
3080
1980
0F00
0000
0000
0000
ENDCHAR

STARTCHAR cyrillic_YU
ENCODING 206
SWIDTH 714 0
DWIDTH 9 0
BBX 9 15 0 -3
BITMAP
0000
0000
6300
6780
6C80
6C80
7C80
6C80
6C80
6C80
6780
6300
0000
0000
0000
ENDCHAR

STARTCHAR cyrillic_YA
ENCODING 207
SWIDTH 714 0
DWIDTH 9 0
BBX 9 15 0 -3
BITMAP
0000
0000
1F80
3080
3080
3080
1F80
0680
0C80
1880
3080
3080
0000
0000
0000
ENDCHAR

STARTCHAR cyrillic_a
ENCODING 208
SWIDTH 714 0
DWIDTH 9 0
BBX 9 15 0 -3
BITMAP
0000
0000
0000
0000
0000
1F80
0080
0080
1F80
3080
3180
1F80
0000
0000
0000
ENDCHAR

STARTCHAR cyrillic_be
ENCODING 209
SWIDTH 714 0
DWIDTH 9 0
BBX 9 15 0 -3
BITMAP
0000
0000
0080
0F80
1800
3000
3F80
3880
3080
3080
3080
1F80
0000
0000
0000
ENDCHAR

STARTCHAR cyrillic_ve
ENCODING 210
SWIDTH 714 0
DWIDTH 9 0
BBX 9 15 0 -3
BITMAP
0000
0000
0000
0000
0000
3F80
1880
1880
1F80
1880
1880
3F80
0000
0000
0000
ENDCHAR

STARTCHAR cyrillic_ghe
ENCODING 211
SWIDTH 714 0
DWIDTH 9 0
BBX 9 15 0 -3
BITMAP
0000
0000
0000
0000
0000
3F80
1880
1800
1800
1800
1800
1800
0000
0000
0000
ENDCHAR

STARTCHAR cyrillic_de
ENCODING 212
SWIDTH 714 0
DWIDTH 9 0
BBX 9 15 0 -3
BITMAP
0000
0000
0000
0000
0000
1F80
0D80
0D80
1980
1980
1980
3F80
3080
0000
0000
ENDCHAR

STARTCHAR cyrillic_ie
ENCODING 213
SWIDTH 714 0
DWIDTH 9 0
BBX 9 15 0 -3
BITMAP
0000
0000
0000
0000
0000
1F80
3080
3080
3F80
3000
3000
1F80
0000
0000
0000
ENDCHAR

STARTCHAR cyrillic_zhe
ENCODING 214
SWIDTH 714 0
DWIDTH 9 0
BBX 9 15 0 -3
BITMAP
0000
0000
0000
0000
0000
3680
3680
1F80
0F00
1F80
3680
3680
0000
0000
0000
ENDCHAR

STARTCHAR cyrillic_ze
ENCODING 215
SWIDTH 714 0
DWIDTH 9 0
BBX 9 15 0 -3
BITMAP
0000
0000
0000
0000
0000
1F80
3080
0080
0F80
0080
3080
1F80
0000
0000
0000
ENDCHAR

STARTCHAR cyrillic_i
ENCODING 216
SWIDTH 714 0
DWIDTH 9 0
BBX 9 15 0 -3
BITMAP
0000
0000
0000
0000
0000
3080
3080
3380
3680
3C80
3080
3080
0000
0000
0000
ENDCHAR

STARTCHAR cyrillic_short_i
ENCODING 217
SWIDTH 714 0
DWIDTH 9 0
BBX 9 15 0 -3
BITMAP
0000
0000
1980
0F00
0000
3080
3080
3380
3680
3C80
3080
3080
0000
0000
0000
ENDCHAR

STARTCHAR cyrillic_ka
ENCODING 218
SWIDTH 714 0
DWIDTH 9 0
BBX 9 15 0 -3
BITMAP
0000
0000
0000
0000
0000
3180
3300
3300
3E00
3300
3180
3080
0000
0000
0000
ENDCHAR

STARTCHAR cyrillic_el
ENCODING 219
SWIDTH 714 0
DWIDTH 9 0
BBX 9 15 0 -3
BITMAP
0000
0000
0000
0000
0000
0F80
0C80
0C80
1880
1880
1880
3080
0000
0000
0000
ENDCHAR

STARTCHAR cyrillic_em
ENCODING 220
SWIDTH 714 0
DWIDTH 9 0
BBX 9 15 0 -3
BITMAP
0000
0000
0000
0000
0000
3080
3980
3F80
3F80
3680
3680
3080
0000
0000
0000
ENDCHAR

STARTCHAR cyrillic_en
ENCODING 221
SWIDTH 714 0
DWIDTH 9 0
BBX 9 15 0 -3
BITMAP
0000
0000
0000
0000
0000
3080
3080
3080
3F80
3080
3080
3080
0000
0000
0000
ENDCHAR

STARTCHAR cyrillic_o
ENCODING 222
SWIDTH 714 0
DWIDTH 9 0
BBX 9 15 0 -3
BITMAP
0000
0000
0000
0000
0000
1F80
3080
3080
3080
3080
3080
1F80
0000
0000
0000
ENDCHAR

STARTCHAR cyrillic_pe
ENCODING 223
SWIDTH 714 0
DWIDTH 9 0
BBX 9 15 0 -3
BITMAP
0000
0000
0000
0000
0000
3F80
1980
1980
1980
1980
1980
1980
0000
0000
0000
ENDCHAR

STARTCHAR cyrillic_er
ENCODING 224
SWIDTH 714 0
DWIDTH 9 0
BBX 9 15 0 -3
BITMAP
0000
0000
0000
0000
0000
3F80
3880
3080
3080
3080
3880
3F80
3000
3000
3000
ENDCHAR

STARTCHAR cyrillic_es
ENCODING 225
SWIDTH 714 0
DWIDTH 9 0
BBX 9 15 0 -3
BITMAP
0000
0000
0000
0000
0000
0F80
1880
3000
3000
3000
1880
0F80
0000
0000
0000
ENDCHAR

STARTCHAR cyrillic_te
ENCODING 226
SWIDTH 714 0
DWIDTH 9 0
BBX 9 15 0 -3
BITMAP
0000
0000
0000
0000
0000
3F80
0600
0600
0600
0600
0600
0600
0000
0000
0000
ENDCHAR

STARTCHAR cyrillic_u
ENCODING 227
SWIDTH 714 0
DWIDTH 9 0
BBX 9 15 0 -3
BITMAP
0000
0000
0000
0000
0000
3080
3080
3080
1980
1980
0F00
0F00
0600
3600
1C00
ENDCHAR

STARTCHAR cyrillic_ef
ENCODING 228
SWIDTH 714 0
DWIDTH 9 0
BBX 9 15 0 -3
BITMAP
0000
0000
0600
1F80
3F80
3680
3680
3680
3F80
1F80
0600
0600
0000
0000
0000
ENDCHAR

STARTCHAR cyrillic_ha
ENCODING 229
SWIDTH 714 0
DWIDTH 9 0
BBX 9 15 0 -3
BITMAP
0000
0000
0000
0000
0000
3080
1980
0F00
0600
0F00
1980
3080
0000
0000
0000
ENDCHAR

STARTCHAR cyrillic_tse
ENCODING 230
SWIDTH 714 0
DWIDTH 9 0
BBX 9 15 0 -3
BITMAP
0000
0000
0000
0000
0000
1980
1980
1980
1980
1980
1980
3F80
0080
0080
0080
ENDCHAR

STARTCHAR cyrillic_che
ENCODING 231
SWIDTH 714 0
DWIDTH 9 0
BBX 9 15 0 -3
BITMAP
0000
0000
0000
0000
0000
3080
3080
3080
1F80
0080
0080
0080
0000
0000
0000
ENDCHAR

STARTCHAR cyrillic_sha
ENCODING 232
SWIDTH 714 0
DWIDTH 9 0
BBX 9 15 0 -3
BITMAP
0000
0000
0000
0000
0000
3680
3680
3680
3680
3680
3680
3F80
0000
0000
0000
ENDCHAR

STARTCHAR cyrillic_shcha
ENCODING 233
SWIDTH 714 0
DWIDTH 9 0
BBX 9 15 0 -3
BITMAP
0000
0000
0000
0000
0000
3680
3680
3680
3680
3680
3680
3F80
0080
0080
0080
ENDCHAR

STARTCHAR cyrillic_hard
ENCODING 234
SWIDTH 714 0
DWIDTH 9 0
BBX 9 15 0 -3
BITMAP
0000
0000
0000
0000
0000
7800
7800
1F80
1880
1880
1880
3F80
0000
0000
0000
ENDCHAR

STARTCHAR cyrillic_yeru
ENCODING 235
SWIDTH 714 0
DWIDTH 9 0
BBX 9 15 0 -3
BITMAP
0000
0000
0000
0000
0000
7080
3080
3C80
3680
3680
3680
7C80
0000
0000
0000
ENDCHAR

STARTCHAR cyrillic_soft
ENCODING 236
SWIDTH 714 0
DWIDTH 9 0
BBX 9 15 0 -3
BITMAP
0000
0000
0000
0000
0000
3800
1800
1F80
1880
1880
1880
3F80
0000
0000
0000
ENDCHAR

STARTCHAR cyrillic_e
ENCODING 237
SWIDTH 714 0
DWIDTH 9 0
BBX 9 15 0 -3
BITMAP
0000
0000
0000
0000
0000
1F00
3180
0080
0780
0080
3180
1F00
0000
0000
0000
ENDCHAR

STARTCHAR cyrillic_yu
ENCODING 238
SWIDTH 714 0
DWIDTH 9 0
BBX 9 15 0 -3
BITMAP
0000
0000
0000
0000
0000
6300
6780
6C80
7C80
6C80
6780
6300
0000
0000
0000
ENDCHAR

STARTCHAR cyrillic_ya
ENCODING 239
SWIDTH 714 0
DWIDTH 9 0
BBX 9 15 0 -3
BITMAP
0000
0000
0000
0000
0000
1F80
3080
3080
1F80
0C80
1880
3080
0000
0000
0000
ENDCHAR

STARTCHAR number
ENCODING 240
SWIDTH 714 0
DWIDTH 9 0
BBX 9 15 0 -3
BITMAP
0000
0000
CD80
CF80
CF80
ED80
FC00
DC00
CC00
CC00
CC00
CC00
0000
0000
0000
ENDCHAR

STARTCHAR cyrillic_io
ENCODING 241
SWIDTH 714 0
DWIDTH 9 0
BBX 9 15 0 -3
BITMAP
0000
0000
1980
1980
0000
1F80
3080
3080
3F80
3000
3000
1F80
0000
0000
0000
ENDCHAR

STARTCHAR cyrillic_dje
ENCODING 242
SWIDTH 714 0
DWIDTH 9 0
BBX 9 15 0 -3
BITMAP
0000
0000
0C00
0C00
3F00
0C00
0F80
0C80
0C80
0C80
0C80
0D80
0000
0000
0000
ENDCHAR

STARTCHAR cyrillic_gje
ENCODING 243
SWIDTH 714 0
DWIDTH 9 0
BBX 9 15 0 -3
BITMAP
0000
0300
0700
0C00
0000
3F80
1880
1800
1800
1800
1800
1800
0000
0000
0000
ENDCHAR

STARTCHAR cyrillic_ie
ENCODING 244
SWIDTH 714 0
DWIDTH 9 0
BBX 9 15 0 -3
BITMAP
0000
0000
0000
0000
0000
0F80
1880
3000
3F00
3000
1880
0F80
0000
0000
0000
ENDCHAR

STARTCHAR cyrillic_dze
ENCODING 245
SWIDTH 714 0
DWIDTH 9 0
BBX 9 15 0 -3
BITMAP
0000
0000
0000
0000
0000
1F80
3080
3000
1F80
0080
3080
1F80
0000
0000
0000
ENDCHAR

STARTCHAR cyrillic_i
ENCODING 246
SWIDTH 714 0
DWIDTH 9 0
BBX 9 15 0 -3
BITMAP
0000
0000
0600
0600
0000
0E00
0600
0600
0600
0600
0600
0F00
0000
0000
0000
ENDCHAR

STARTCHAR cyrillic_yi
ENCODING 247
SWIDTH 714 0
DWIDTH 9 0
BBX 9 15 0 -3
BITMAP
0000
0000
1B00
1B00
0000
0E00
0600
0600
0600
0600
0600
0F00
0000
0000
0000
ENDCHAR

STARTCHAR cyrillic_je
ENCODING 248
SWIDTH 714 0
DWIDTH 9 0
BBX 9 15 0 -3
BITMAP
0000
0000
0600
0600
0000
0E00
0600
0600
0600
0600
0600
0600
0600
3600
1C00
ENDCHAR

STARTCHAR cyrillic_lje
ENCODING 249
SWIDTH 714 0
DWIDTH 9 0
BBX 9 15 0 -3
BITMAP
0000
0000
0000
0000
0000
3E00
3600
3780
3680
6680
6680
6780
0000
0000
0000
ENDCHAR

STARTCHAR cyrillic_nje
ENCODING 250
SWIDTH 714 0
DWIDTH 9 0
BBX 9 15 0 -3
BITMAP
0000
0000
0000
0000
0000
3600
3600
3780
3E80
3680
3680
3780
0000
0000
0000
ENDCHAR

STARTCHAR cyrillic_tshe
ENCODING 251
SWIDTH 714 0
DWIDTH 9 0
BBX 9 15 0 -3
BITMAP
0000
0000
0C00
0C00
3F00
0C00
0F80
0C80
0C80
0C80
0C80
0C80
0000
0000
0000
ENDCHAR

STARTCHAR cyrillic_kje
ENCODING 252
SWIDTH 714 0
DWIDTH 9 0
BBX 9 15 0 -3
BITMAP
0000
0300
0700
0C00
0000
3180
3300
3300
3E00
3300
3180
3080
0000
0000
0000
ENDCHAR

STARTCHAR paragraph
ENCODING 253
SWIDTH 714 0
DWIDTH 9 0
BBX 9 15 0 -3
BITMAP
0000
0000
0F00
1980
3000
1800
0F00
1980
3080
1980
0F00
0180
0080
1980
0F00
ENDCHAR

STARTCHAR cyrillic_short_u
ENCODING 254
SWIDTH 714 0
DWIDTH 9 0
BBX 9 15 0 -3
BITMAP
0000
0000
1980
0F00
0000
3080
3080
3080
1980
1980
0F00
0F00
0600
3600
1C00
ENDCHAR

STARTCHAR cyrillic_dzhe
ENCODING 255
SWIDTH 714 0
DWIDTH 9 0
BBX 9 15 0 -3
BITMAP
0000
0000
0000
0000
0000
1980
1980
1980
1980
1980
1980
3F80
0F00
0600
0600
ENDCHAR
ENDFONT
